<svg width="15" height="13" viewBox="0 0 15 13" fill="none" xmlns="http://www.w3.org/2000/svg">
<g id="Group 6">
<g id="Group">
<g id="Group_2">
<path id="Vector" d="M13.6815 0.456787H1.31823C1.11529 0.456787 0.925303 0.508404 0.753418 0.593484L7.47057 7.54285L8.97611 6.04594C8.97611 6.04594 8.97622 6.04579 8.97625 6.04573C8.97628 6.04567 8.9764 6.04561 8.9764 6.04561L14.2465 0.593605C14.0746 0.508465 13.8845 0.456787 13.6815 0.456787Z" fill="white"/>
</g>
</g>
<g id="Group_3">
<g id="Group_4">
<path id="Vector_2" d="M14.8681 1.23657L9.90869 6.3672L14.868 11.4979C14.9502 11.3201 15.0001 11.1235 15.0001 10.9136V1.8207C15.0001 1.61087 14.9503 1.41434 14.8681 1.23657Z" fill="white"/>
</g>
</g>
<g id="Group_5">
<g id="Group_6">
<path id="Vector_3" d="M0.132129 1.23633C0.0498925 1.41415 0 1.61071 0 1.82067V10.9136C0 11.1234 0.0498339 11.32 0.132011 11.4977L5.09146 6.36711L0.132129 1.23633Z" fill="white"/>
</g>
</g>
<g id="Group_7">
<g id="Group_8">
<path id="Vector_4" d="M9.28726 7.01007L7.78151 8.50715C7.69567 8.59596 7.58323 8.64036 7.47082 8.64036C7.35841 8.64036 7.24594 8.59596 7.16013 8.50715L5.71298 7.01001L0.753418 12.1407C0.925332 12.2258 1.11544 12.2775 1.31844 12.2775H13.6817C13.8847 12.2775 14.0747 12.2259 14.2466 12.1408L9.28726 7.01007Z" fill="white"/>
</g>
</g>
</g>
</svg>
