<svg width="15" height="16" viewBox="0 0 15 16" fill="none" xmlns="http://www.w3.org/2000/svg">
<g id="Group">
<g id="Group_2">
<path id="Vector" d="M11.2381 0.0789795H3.75C1.69048 0.0789795 0 1.82789 0 3.97093V11.7179C0 13.8486 1.69048 15.5975 3.75 15.5975H11.2381C13.3095 15.5975 15 13.8486 15 11.7056V3.97093C15 1.82789 13.3095 0.0789795 11.2381 0.0789795ZM7.09524 3.2689C7.11905 2.88709 7.46429 3.02257 7.64286 2.99794C9.88095 3.07184 11.8095 5.15329 11.7857 7.39486C11.7857 7.61655 11.8571 7.93677 11.5357 7.93677C11.2262 7.93677 11.3095 7.60423 11.2738 7.38254C10.9762 5.0055 9.90476 3.88471 7.57143 3.51522C7.38095 3.49059 7.08333 3.52754 7.09524 3.2689ZM10.4405 7.49339C10.0833 7.54265 10.1548 7.22243 10.119 7.01305C9.88095 5.55973 9.38095 5.03013 7.94048 4.7099C7.72619 4.66064 7.39286 4.69759 7.45238 4.36505C7.5 4.04482 7.79762 4.15567 8.02381 4.1803C9.46429 4.35273 10.6429 5.62131 10.631 7.01305C10.6071 7.16085 10.7024 7.44412 10.4405 7.49339ZM9.54762 6.72978C9.54762 6.92684 9.52381 7.11158 9.30952 7.13621C9.15476 7.16085 9.05952 7.02537 9.03571 6.86525C8.97619 6.27407 8.66667 5.9169 8.07143 5.81837C7.89286 5.79374 7.72619 5.73216 7.80952 5.48583C7.86905 5.32572 8.0119 5.30109 8.16667 5.30109C8.80952 5.28877 9.54762 6.0647 9.54762 6.72978ZM11.8095 11.2745C11.5595 11.9765 10.7143 12.6909 9.9881 12.6785C9.88095 12.6539 9.67857 12.617 9.5 12.5431C6.30952 11.1513 3.9881 8.86049 2.67857 5.58436C2.2381 4.48821 2.70238 3.55217 3.80952 3.18268C4.0119 3.10879 4.20238 3.10879 4.40476 3.18268C4.88095 3.35511 6.08333 5.04244 6.10714 5.5351C6.13095 5.9169 5.86905 6.12628 5.61905 6.29871C5.13095 6.63125 5.13095 7.05 5.34524 7.53033C5.80952 8.58954 6.60714 9.32851 7.64286 9.79653C8.0119 9.96896 8.38095 9.95664 8.63095 9.56252C9.08333 8.86049 9.64286 8.89744 10.25 9.32851C10.5595 9.55021 10.869 9.75958 11.1548 9.99359C11.5476 10.3261 12.0476 10.5971 11.8095 11.2745Z" fill="white"/>
</g>
</g>
</svg>
